<?xml version="1.0" encoding="utf-8"?>
<!-- Generator: Adobe Illustrator 23.0.3, SVG Export Plug-In . SVG Version: 6.00 Build 0)  -->
<svg version="1.1" id="Layer_1" xmlns="http://www.w3.org/2000/svg" xmlns:xlink="http://www.w3.org/1999/xlink" x="0px" y="0px"
	 viewBox="0 0 15 14.4" style="enable-background:new 0 0 15 14.4;" xml:space="preserve">
<path d="M12.5,4.4L7.5,0L0,3.1l0.6,9.4l6.8,1.9h3.1l3.8-1.3L15,9.9L12.5,4.4z M14,9L9.6,7.5L9.5,7.4L7.9,1.1L12,4.7L14,9z M7.4,13.8
	l-3.3-0.9l1.1-2.8L9,7.9h0.1l1.5,3.1L7.4,13.8z M6.1,6.5L0.9,3.4l6.3-2.6L6.1,6.5z M6.5,7l1-5.4L9,7.4L5.6,9.3L6.5,7z M0.6,3.8
	L5.9,7l-2.3,5.8l-2.5-0.7L0.6,3.8z M10.4,13.8H8.2l2.9-2.4l2.3,1.4L10.4,13.8z M13.9,12.5l-2.6-1.6L9.9,8.2l4.3,1.4l0.1,0.3
	L13.9,12.5z"/>
</svg>
